<svg xmlns="http://www.w3.org/2000/svg" width="144" height="96" viewBox="-36 -24 72 48"><defs><radialGradient id="coal"><stop stop-color="#b45e29"/><stop offset=".6" stop-color="#432a20"/><stop offset="1" stop-color="#151d1c"/></radialGradient></defs><ellipse rx="34" ry="20" cy="4" fill="#0c1613" opacity=".55"/><ellipse rx="27" ry="15" fill="url(#coal)"/><g fill="#727563" stroke="#333d33" stroke-width="1.4"><path d="M-29-7-22-14-15-10-19-3Z"/><path d="M-13-14-5-19 3-17 4-10Z"/><path d="M9-16 18-13 21-7 13-7Z"/><path d="M24-8 32-1 28 6 21 4Z"/><path d="M23 9 28 15 18 20 12 15Z"/><path d="M7 16 11 21-1 23-7 18Z"/><path d="M-14 13-9 20-20 18-27 10Z"/><path d="M-27 5-34 4-32-4-25-5Z"/></g><path d="M-21 10 13-14 19-8-15 15Z" fill="#704b31" stroke="#241e18" stroke-width="2"/><path d="M-19-11 21 7 18 13-23-6Z" fill="#57402c" stroke="#201d16" stroke-width="2"/><g stroke="#b48043" stroke-width=".7" fill="none"><path d="m-16 8 29-19M-17-8 36 17M-8 10 11-8"/></g><g fill="#efac50"><path d="m-5-2 3-1 2 3-3 1Z"/><path d="m8 4 3-1 1 2-2 2Z"/></g></svg>
