<svg xmlns="http://www.w3.org/2000/svg" width="384" height="384" viewBox="0 0 384 384"><defs><linearGradient id="stone" x2=".8" y2="1"><stop stop-color="#929282"/><stop offset=".35" stop-color="#626e63"/><stop offset="1" stop-color="#2e4039"/></linearGradient><linearGradient id="leaf" x2=".3" y2="1"><stop stop-color="#73835b"/><stop offset=".4" stop-color="#3b604c"/><stop offset="1" stop-color="#122f29"/></linearGradient><linearGradient id="wood" x2="1" y2=".4"><stop stop-color="#8b8060"/><stop offset=".3" stop-color="#555741"/><stop offset="1" stop-color="#2b382d"/></linearGradient></defs><path d="M 192 300 Q 152 290 132 233 M 152 275 L 112 251" fill="none" stroke="#71765a" stroke-width="12" stroke-linecap="round"/><path d="M 192 271 Q 242 261 262 204 M 242 246 L 282 222" fill="none" stroke="#71765a" stroke-width="11.3" stroke-linecap="round"/><path d="M 192 242 Q 132 232 112 175 M 132 217 L 92 193" fill="none" stroke="#71765a" stroke-width="10.6" stroke-linecap="round"/><path d="M 192 213 Q 262 203 282 146 M 262 188 L 302 164" fill="none" stroke="#71765a" stroke-width="9.9" stroke-linecap="round"/><path d="M 192 184 Q 112 174 92 117 M 112 159 L 72 135" fill="none" stroke="#71765a" stroke-width="9.2" stroke-linecap="round"/><path d="M 192 155 Q 282 145 302 88 M 282 130 L 322 106" fill="none" stroke="#71765a" stroke-width="8.5" stroke-linecap="round"/><path d="M 192 126 Q 92 116 72 59 M 92 101 L 52 77" fill="none" stroke="#71765a" stroke-width="7.800000000000001" stroke-linecap="round"/><path d="M 192 97 Q 302 87 322 30 M 302 72 L 342 48" fill="none" stroke="#71765a" stroke-width="7.1000000000000005" stroke-linecap="round"/><path d="M 192 68 Q 72 58 52 1 M 72 43 L 32 19" fill="none" stroke="#71765a" stroke-width="6.4" stroke-linecap="round"/></svg>
