<svg xmlns="http://www.w3.org/2000/svg" width="384" height="384" viewBox="0 0 384 384"><defs><linearGradient id="stone" x2=".8" y2="1"><stop stop-color="#929282"/><stop offset=".35" stop-color="#626e63"/><stop offset="1" stop-color="#2e4039"/></linearGradient><linearGradient id="leaf" x2=".3" y2="1"><stop stop-color="#73835b"/><stop offset=".4" stop-color="#3b604c"/><stop offset="1" stop-color="#122f29"/></linearGradient><linearGradient id="wood" x2="1" y2=".4"><stop stop-color="#8b8060"/><stop offset=".3" stop-color="#555741"/><stop offset="1" stop-color="#2b382d"/></linearGradient></defs><path d="M 116 379 L 159 324 L 167 197 L 151 77 L 184 17 L 203 58 L 219 194 L 221 321 L 274 379 L 222 359 L 190 377 L 163 358Z" fill="url(#wood)" stroke="#24392d" stroke-width="4"/><path d="M 171 324 Q 190 237 177 109 M 209 304 Q 195 225 198 104 M 180 304 L 144 362 M 215 317 L 248 356" fill="none" stroke="#aa9e72" stroke-opacity=".5" stroke-width="4"/><path d="M 178 209 L 104 144 L 68 53 L 95 78 L 135 125 L 196 166 M 207 155 L 256 98 L 280 17 L 288 63 L 268 131 L 208 219" fill="url(#wood)" stroke="#364731" stroke-width="3"/></svg>
