<svg xmlns="http://www.w3.org/2000/svg" width="50" height="18" viewBox="-9 -9 50 18">
<polygon points="-8,-2 12,-2 12,2 -8,2" fill="#523b2b" stroke="#20292e" stroke-width=".45" stroke-linejoin="round"/>
<polyline points="-8,-2 12,-2 12,2" fill="none" stroke="#d6dac6" stroke-opacity=".4" stroke-width=".35"/>
<polygon points="8,-3 32,-3 40,0 32,3 8,3" fill="#879ea6" stroke="#20292e" stroke-width=".45" stroke-linejoin="round"/>
<polyline points="8,-3 32,-3 40,0" fill="none" stroke="#d6dac6" stroke-opacity=".4" stroke-width=".35"/>
<polygon points="5,-8 8,-8 8,8 5,8" fill="#59ccff" stroke="#20292e" stroke-width=".45" stroke-linejoin="round"/>
<polyline points="5,-8 8,-8 8,8" fill="none" stroke="#d6dac6" stroke-opacity=".4" stroke-width=".35"/>
<polygon points="13,-1 29,-1 34,0 29,1 13,1" fill="#405259" stroke="#20292e" stroke-width=".45" stroke-linejoin="round"/>
<polyline points="13,-1 29,-1 34,0" fill="none" stroke="#d6dac6" stroke-opacity=".4" stroke-width=".35"/>
</svg>
